Coordinates
version=1
nRows=60
nColumns=12
inDegrees=yes

Units are S.I. units (second, meters, Newtons, ...)
Angles are in degrees

endheader
time	SC_y	SC_z	SC_x	AC_y	AC_z	AC_x	GH_y	GH_z	GH_yy	EL_x	PS_y
       0.0              -33.75          3.636          47.13          41.41         -13.69         -3.037         -139.6          5.944          134.7          110.6          39.29
   0.03364              -33.75          3.636          47.12          41.41         -13.69         -3.035         -139.6          5.954          134.7          110.6          39.29
   0.06729              -33.76          3.636          47.11          41.41         -13.69         -3.033         -139.6          5.964          134.7          110.6          39.29
    0.1009              -33.76          3.637          47.11          41.41         -13.69         -3.032         -139.5          5.975          134.7          110.6          39.29
    0.1346              -33.76          3.637           47.1          41.41         -13.69          -3.03         -139.5          5.986          134.6          110.6          39.28
    0.1682              -33.76          3.637           47.1          41.41         -13.69         -3.028         -139.4          5.998          134.6          110.6          39.28
    0.2019              -33.76          3.637          47.09          41.42         -13.69         -3.026         -139.4          6.011          134.5          110.6          39.28
    0.2355              -33.77          3.638          47.08          41.42         -13.69         -3.023         -139.3          6.025          134.5          110.6          39.27
    0.2692              -33.77          3.638          47.07          41.42         -13.69         -3.021         -139.3           6.04          134.5          110.6          39.27
    0.3028              -33.77          3.638          47.06          41.42         -13.69         -3.019         -139.2          6.056          134.4          110.5          39.26
    0.3364              -33.77          3.639          47.05          41.42         -13.69         -3.016         -139.2          6.073          134.4          110.5          39.26
    0.3701              -33.78          3.639          47.04          41.43          -13.7         -3.013         -139.1          6.091          134.3          110.5          39.26
    0.4037              -33.78          3.639          47.03          41.43          -13.7          -3.01         -139.1          6.111          134.2          110.5          39.25
    0.4374              -33.79           3.64          47.02          41.43          -13.7         -3.006         -139.0          6.133          134.2          110.5          39.24
     0.471              -33.79           3.64           47.0          41.43          -13.7         -3.002         -138.9          6.156          134.1          110.5          39.24
    0.5047              -33.79          3.641          46.99          41.44          -13.7         -2.998         -138.8          6.181          134.0          110.5          39.23
    0.5383               -33.8          3.641          46.97          41.44          -13.7         -2.994         -138.7          6.209          134.0          110.5          39.23
     0.572               -33.8          3.642          46.96          41.44          -13.7         -2.989         -138.6          6.238          133.9          110.4          39.22
    0.6056              -33.81          3.643          46.94          41.45          -13.7         -2.984         -138.5          6.271          133.8          110.4          39.21
    0.6393              -33.82          3.643          46.92          41.45         -13.71         -2.978         -138.4          6.307          133.7          110.4           39.2
    0.6729              -33.82          3.644           46.9          41.46         -13.71         -2.972         -138.3          6.346          133.5          110.4          39.19
    0.7065              -33.83          3.645          46.87          41.46         -13.71         -2.965         -138.1          6.389          133.4          110.4          39.18
    0.7402              -33.84          3.646          46.84          41.47         -13.71         -2.957         -138.0          6.436          133.3          110.3          39.17
    0.7738              -33.85          3.647          46.81          41.47         -13.72         -2.949         -137.8          6.489          133.1          110.3          39.15
    0.8075              -33.86          3.649          46.78          41.48         -13.72         -2.939         -137.6          6.548          132.9          110.3          39.14
    0.8411              -33.87           3.65          46.74          41.49         -13.72         -2.929         -137.4          6.613          132.7          110.2          39.12
    0.8748              -33.88          3.651           46.7           41.5         -13.73         -2.917         -137.1          6.687          132.5          110.2           39.1
    0.9084              -33.89          3.653          46.65          41.51         -13.73         -2.903         -136.8          6.769          132.3          110.1          39.08
    0.9421              -33.91          3.655           46.6          41.52         -13.74         -2.888         -136.5          6.862          132.0          110.1          39.06
    0.9757              -33.93          3.657          46.54          41.53         -13.74         -2.871         -136.2          6.968          131.7          110.0          39.03
     1.009              -33.95           3.66          46.47          41.55         -13.75         -2.852         -135.8          7.089          131.3          110.0           39.0
     1.043              -33.97          3.663          46.39          41.56         -13.75         -2.829         -135.3          7.227          130.9          109.9          38.96
     1.077               -34.0          3.666           46.3          41.58         -13.76         -2.804         -134.7          7.387          130.4          109.8          38.92
      1.11              -34.03           3.67          46.19          41.61         -13.77         -2.774         -134.1          7.573          129.9          109.7          38.87
     1.144              -34.07          3.675          46.06          41.63         -13.78         -2.738         -133.4          7.791          129.2          109.6          38.82
     1.178              -34.11           3.68          45.92          41.66          -13.8         -2.697         -132.5          8.047          128.4          109.4          38.75
     1.211              -34.17          3.687          45.74           41.7         -13.81         -2.648         -131.5          8.352          127.5          109.2          38.67
     1.245              -34.23          3.694          45.53          41.74         -13.83         -2.589         -130.3          8.717          126.4          109.0          38.58
     1.279              -34.31          3.704          45.28           41.8         -13.86         -2.518         -128.8          9.159          125.1          108.8          38.46
     1.312               -34.4          3.715          44.97          41.86         -13.88          -2.43         -126.9          9.698          123.5          108.5          38.32
     1.346              -34.51          3.729          44.58          41.94         -13.92         -2.323         -124.7          10.36          121.5          108.1          38.15
     1.379              -34.66          3.746          44.11          42.04         -13.96         -2.189         -121.9           11.2          119.0          107.6          37.94
     1.413              -34.84          3.768           43.5          42.17         -14.02          -2.02         -118.3          12.24          115.9          107.0          37.67
     1.447              -35.06          3.796          42.74          42.33         -14.09         -1.805         -113.8          13.57          111.9          106.3          37.33
      1.48              -35.36          3.832          41.76          42.54         -14.18          -1.53         -108.1          15.27          106.8          105.3          36.89
     1.514              -35.73          3.878           40.5           42.8         -14.29         -1.178         -100.7          17.46          100.2          104.0          36.32
     1.548              -36.21          3.937           38.9          43.14         -14.44         -0.727         -91.28          20.25          91.86          102.4           35.6
     1.581              -36.82          4.011          36.88          43.57         -14.62        -0.1605         -79.43          23.76          81.34          100.4           34.7
     1.615              -37.55          4.101          34.42          44.08         -14.85         0.5299         -64.98          28.04          68.52          97.99          33.59
     1.649               -38.4          4.205          31.57          44.69         -15.11           1.33         -48.23          32.99          53.65          95.16          32.32
     1.682              -39.33          4.318          28.48          45.34         -15.39          2.197         -30.09          38.36          37.56          92.09          30.93
     1.716              -40.25          4.431           25.4          45.99         -15.67          3.063         -11.96          43.73          21.47          89.02          29.55
      1.75               -41.1          4.536          22.54          46.59         -15.93          3.863          4.789          48.68           6.61          86.19          28.27
     1.783              -41.84          4.626          20.09           47.1         -16.16          4.554          19.24          52.96         -6.211          83.75          27.16
     1.817              -42.44            4.7          18.07          47.53         -16.34           5.12          31.09          56.47         -16.73          81.75          26.26
      1.85              -42.92          4.758          16.46          47.87         -16.49          5.571          40.52          59.26          -25.1          80.15          25.54
     1.884               -43.3          4.804          15.21          48.13          -16.6          5.924          47.91          61.45         -31.65           78.9          24.97
     1.918              -43.59           4.84          14.23          48.34         -16.69          6.198          53.66          63.15         -36.76          77.93          24.54
     1.951              -43.82          4.868          13.46           48.5         -16.76          6.413          58.15          64.48         -40.74          77.17          24.19
     1.985               -44.0           4.89          12.86          48.63         -16.82          6.582          61.69          65.52         -43.88          76.57          23.92
